<svg width="128" height="128" viewBox="0 0 128 128" fill="none" xmlns="http://www.w3.org/2000/svg">
<g clip-path="url(#clip0_2164_3)">
<path d="M17.631 0H110.367C110.645 0.160527 112.34 0.476896 112.79 0.57609C120.093 2.18455 126.099 8.37216 127.571 15.6919C127.656 16.1138 127.865 17.3274 128 17.6636V110.573C127.5 112.494 127.084 114.526 126.272 116.281C123.75 121.74 118.769 125.96 112.92 127.41C112.623 127.484 111.026 127.888 110.85 128H17.0589C16.3465 127.775 15.5299 127.495 14.8243 127.314C7.84833 125.519 2.0727 119.674 0.534435 112.612C0.41179 112.049 0.25646 111.228 0.0359335 110.675L0 110.587V17.656C0.170611 17.307 0.702915 14.5698 0.927939 13.8603C2.76001 8.08371 7.0053 3.5986 12.608 1.33177C13.6997 0.890025 17.1744 0.277838 17.631 0Z" fill="white"/>
<path d="M27.4819 25.4885C28.6218 25.2988 31.1683 25.3646 32.4458 25.3748C32.4369 27.474 32.3556 30.0641 32.4515 32.125C29.3341 32.2594 26.8344 33.0609 26.688 36.6405C26.5738 39.4338 26.6225 42.2226 26.6221 45.0176L26.6211 61.1554L26.6223 80.9023C26.6219 84.314 26.5953 87.7246 26.6524 91.136C26.7161 94.9475 29.0295 96.0701 32.4899 96.021C32.3453 98.0778 32.4149 100.793 32.4126 102.9C28.279 102.92 24.2869 103.221 21.0699 100.05C18.3844 97.4035 18.445 93.9939 18.4509 90.5136L18.4731 81.1283C18.479 78.6816 18.6134 74.5909 18.0285 72.3238C17.6013 70.6321 16.7356 69.0831 15.5186 67.833C14.6279 66.9346 13.7728 66.4103 12.6519 65.8584C12.693 64.852 12.7151 63.274 12.622 62.2795C20.1874 58.3568 18.1775 51.0815 18.4664 43.9639C18.5271 42.4669 18.4404 40.9641 18.4978 39.4548C18.4694 39.206 18.4694 38.7866 18.4649 38.5265C18.4006 34.7889 18.1861 31.163 20.9688 28.2445C22.633 26.499 25.0959 25.5353 27.4819 25.4885Z" fill="black"/>
<path d="M18.4978 39.4548C18.4694 39.206 18.4694 38.7867 18.4649 38.5265C18.4006 34.7889 18.1861 31.163 20.9688 28.2445C22.633 26.499 25.0959 25.5353 27.4819 25.4885C27.7006 25.5048 28.3111 25.5354 28.4915 25.5861C27.8998 26.4233 25.9714 26.4313 24.9064 28.5544C24.1936 29.9754 21.8026 32.2823 20.3078 32.9292C18.3508 33.7675 18.9119 39.0111 18.4978 39.4548Z" fill="#6F6F6F"/>
<path d="M95.5155 25.3857C97.667 25.3702 99.4959 25.3336 101.642 25.568C104.304 26.1372 106.418 27.1218 107.986 29.4783C109.723 32.089 109.537 35.0793 109.531 38.0756L109.51 47.5675C109.499 53.2122 109.012 59.3705 115.265 62.2083C115.265 63.3662 115.231 64.7218 115.285 65.864C108.833 69.2432 109.485 74.7621 109.5 81.0847L109.518 88.8533C109.528 93.9137 110.035 98.6478 104.806 101.598C102.064 103.144 98.6552 102.927 95.56 102.89L95.5089 96.0365C98.5792 96.011 101.07 95.1916 101.301 91.6775C101.449 89.4321 101.389 87.1972 101.389 84.9477L101.385 72.5885C101.38 61.039 101.397 49.4893 101.376 37.94C101.372 35.3316 101.182 34.093 98.7914 32.6311C97.5534 32.1747 96.8247 32.2093 95.5124 32.1488C95.5485 29.8947 95.5495 27.64 95.5155 25.3857Z" fill="#B1B1B1"/>
<path d="M95.5155 25.3857C97.667 25.3702 99.4959 25.3336 101.642 25.568C101.326 25.6436 101.442 25.5906 101.2 25.8312C101.325 25.9457 101.278 25.9133 101.428 25.9807C101.488 26.5897 100.642 26.5145 100.575 26.6345C99.8013 28.0322 99.1155 29.5847 98.5168 31.0653C98.5629 31.2707 98.6244 31.4685 98.6089 31.6758C98.331 31.7992 98.2871 31.7868 97.9761 31.7985L97.8843 31.9831C98.1254 32.1991 98.1578 32.2212 98.4769 32.2687L98.7914 32.6311C97.5534 32.1747 96.8246 32.2093 95.5124 32.1488C95.5485 29.8947 95.5495 27.64 95.5155 25.3857Z" fill="#6F6F6F"/>
<path d="M35.9751 55.909C35.5991 54.684 35.8828 40.4882 35.8764 38.2542L35.8494 32.2915C35.8378 30.0136 35.4356 26.9721 37.7658 25.7525C38.0349 25.6116 38.5053 25.3822 38.8095 25.3566C41.2173 25.1535 43.7004 25.2396 46.1225 25.2418L61.2531 25.2416C60.5341 27.914 59.6181 31.4941 59.0559 34.1751C56.5986 34.8732 53.7488 35.9055 51.6895 37.484C51.0414 37.9808 50.4063 38.4666 49.7248 38.9177C49.2624 38.9611 49.3728 38.9252 48.8949 38.6317C48.7855 38.8246 48.6603 38.9426 48.7503 39.1281C49.4293 40.5276 51.6166 41.6842 51.9055 43.0651C51.403 42.9895 48.7298 39.6502 48.1249 39.2011C47.9419 39.2258 47.7886 39.2466 47.6651 39.2633L48.2278 40.3113C44.6633 44.2917 42.4505 48.455 41.972 53.8743C41.2583 54.1061 36.2676 55.654 36.0869 55.8706L35.9751 55.909Z" fill="black"/>
<path d="M46.7708 37.4608C47.3851 37.7165 48.4585 38.1538 48.8949 38.6318C48.7855 38.8246 48.6603 38.9426 48.7503 39.1281C49.4293 40.5276 51.6166 41.6843 51.9055 43.0651C51.403 42.9895 48.7298 39.6503 48.1249 39.2011C47.9419 39.2259 47.7886 39.2466 47.6651 39.2634C47.4743 39.0725 46.9221 37.7998 46.7708 37.4608Z" fill="#ACD7DE"/>
<path d="M66.6765 25.24L81.8883 25.2467C83.1426 25.2458 84.8389 25.3038 86.0561 25.2434C92.1775 24.9397 92.1658 27.391 92.1253 32.4414C92.1143 34.1774 92.1125 35.9135 92.1198 37.6495C92.1214 43.5515 92.2124 49.6899 92.1224 55.5717C92.1216 55.6313 92.1201 55.6908 92.1176 55.7504L91.8399 55.9014L91.538 55.8052L91.4415 55.7933C91.0241 55.7388 90.639 55.534 90.2619 55.3427C89.2864 54.8477 86.691 54.5457 86.0738 53.7502C85.247 48.11 83.5618 44.5093 79.7105 40.2944C79.581 40.0557 79.516 40.034 79.287 39.8718C78.3665 40.5805 76.8875 42.5435 76.1114 43.038L76.0091 42.937C76.1839 42.1612 79.1233 39.948 79.6984 38.4517L79.4846 38.2917L78.3393 39.0208C75.2924 36.4452 72.7426 35.298 68.9526 34.1749L66.6765 25.24Z" fill="#6F6F6F"/>
<path d="M79.4847 38.2916C79.8589 37.974 80.6487 37.5633 81.1022 37.3085C80.762 38.3142 80.3593 39.4381 79.7105 40.2943C79.581 40.0556 79.516 40.034 79.287 39.8717C78.3665 40.5805 76.8875 42.5435 76.1114 43.038L76.0092 42.937C76.1839 42.1611 79.1233 39.948 79.6984 38.4516L79.4847 38.2916Z" fill="#ACD7DE"/>
<path d="M64.213 81.866C61.0572 82.0767 56.5047 81.8244 53.1802 81.8956C48.7722 81.9901 44.1456 81.8335 39.721 81.8859C39.3091 81.8907 38.6744 81.7957 38.2944 81.649C37.3771 81.2947 36.6946 80.7769 36.3066 79.8585C36.092 79.3502 35.8466 78.3394 35.865 77.842C35.951 75.5112 35.7117 56.5869 35.9751 55.909L36.0869 55.8706C36.8371 56.0504 40.4904 55.891 41.4796 55.8786C43.2775 55.8561 45.2025 55.868 47.0035 55.8544L46.9831 59.302C45.9644 59.0029 44.9434 58.7117 43.92 58.4287L43.4207 58.2677C42.8294 58.0392 42.4836 57.9362 41.8674 57.7835C42.8736 63.4991 44.2857 66.9695 48.1845 71.1891C48.2597 71.2705 47.8412 72.0221 47.7735 72.1394C47.4956 72.6345 47.1172 73.2651 47.1617 73.8466L47.3249 73.9426C47.5745 73.8304 47.725 73.7882 47.9126 73.596C48.495 73.3714 49.1572 72.8856 49.6886 72.5294C53.9634 75.6299 57.2056 77.2851 62.6555 77.652C62.8446 78.2534 63.1106 79.1887 63.3335 79.7515C63.5047 80.2892 63.7684 81.3471 64.1266 81.714L64.213 81.866Z" fill="#6F6F6F"/>
<path d="M91.8399 55.9014L92.1176 55.7504L92.1217 71.3966C92.1211 72.859 92.0579 74.5476 92.1175 75.9311C92.2265 78.4604 91.9666 81.5719 88.7491 81.8259C86.1525 82.0309 83.2747 81.8869 80.647 81.8811L65.2906 81.9011C64.9312 81.8954 64.572 81.8836 64.213 81.866L64.1266 81.714C63.7684 81.3471 63.5047 80.2892 63.3335 79.7515L63.6504 79.2645C63.8306 79.3317 63.8785 79.3717 64.066 79.3729L64.7812 79.5569C64.8934 79.0075 65.1427 78.2285 65.3025 77.6716C70.4972 77.3626 74.1924 75.5615 78.1865 72.6311C78.3959 72.4775 78.8909 72.8296 79.1202 72.9569C79.4014 72.8697 79.5684 72.8281 79.833 72.6824C79.7926 72.3095 79.8374 72.191 79.9862 71.8526C79.489 71.0691 80.3595 70.5671 80.9627 69.8469C84.1207 66.076 85.3601 62.5162 86.0474 57.7937C86.9536 57.5857 91.1636 56.3595 91.8399 55.9014Z" fill="#B1B1B1"/>
<path d="M63.6504 79.2645C63.8306 79.3318 63.8785 79.3718 64.066 79.3729L64.7812 79.5569C64.5635 80.2622 64.3202 81.0068 64.1266 81.714C63.7684 81.3471 63.5047 80.2893 63.3335 79.7515L63.6504 79.2645Z" fill="#D8E9EE"/>
<path d="M79.9862 71.8527C80.4745 72.7044 80.6536 73.2177 80.9942 74.1469C80.4387 73.8092 79.6159 73.3418 79.1202 72.9569C79.4014 72.8698 79.5684 72.8282 79.833 72.6824C79.7926 72.3095 79.8374 72.191 79.9862 71.8527Z" fill="#CCE9CF"/>
<path d="M63.9495 25.0699L64.3862 26.8576C65.404 30.3734 67.1119 36.2898 67.8012 39.7946C67.9844 40.2809 68.0496 40.463 68.1366 40.9714L68.294 41.367C69.8177 47.6345 71.6256 55.2064 73.4625 61.3684C70.3327 58.4164 67.0275 55.0078 63.9782 51.9381C60.9314 55.1009 57.5352 58.2379 54.5761 61.4481C54.9212 59.5021 56.1824 55.2586 56.716 53.188L61.1659 35.666L61.3252 35.1521C61.3926 34.6329 62.0464 32.3405 62.2075 31.7303L63.9495 25.0699Z" fill="black"/>
<path d="M64.2853 37.5406C65.4026 37.2002 65.2482 37.13 66.44 37.2267C66.709 37.0441 66.6227 37.0984 66.7112 36.6625C67.1422 37.632 67.1978 39.1317 67.8013 39.7946C67.9844 40.2809 68.0497 40.463 68.1367 40.9714L68.294 41.367C69.8178 47.6345 71.6256 55.2064 73.4625 61.3684C70.3328 58.4164 67.0275 55.0077 63.9783 51.9381L64.0138 48.2721C64.1471 47.1859 64.1072 44.7402 64.1282 43.5609C64.164 41.5484 64.275 39.5417 64.2853 37.5406Z" fill="#6F6F6F"/>
<path d="M64.3863 26.8577C65.404 30.3734 67.1119 36.2898 67.8012 39.7947C67.1977 39.1318 67.1421 37.632 66.7111 36.6625C66.6226 37.0984 66.709 37.0442 66.44 37.2268C65.2481 37.13 65.4026 37.2003 64.2852 37.5407C64.275 39.5418 64.164 41.5484 64.1281 43.5609C64.1071 44.7403 64.1471 47.1859 64.0137 48.2722C63.8466 44.6968 63.6995 29.6888 64.3863 26.8577Z" fill="#B1B1B1"/>
<path d="M85.0878 90.1727C86.5706 90.1034 88.1426 90.3407 89.3241 91.2396C92.8383 93.9131 92.2494 101.06 87.7943 102.49C87.1919 102.683 86.7659 102.762 86.1536 102.845C84.5554 102.973 82.7393 102.633 81.4731 101.576C78.9624 99.4791 78.8959 94.4742 80.9485 92.0464C82.0561 90.7362 83.4371 90.318 85.0878 90.1727Z" fill="black"/>
<path d="M84.7428 92.5173C85.4244 92.4825 86.1319 92.4182 86.7604 92.7117C89.0495 93.7807 89.0884 98.2132 87.4645 99.842C87.1116 100.196 86.6776 100.329 86.207 100.476C84.7786 100.58 83.422 100.287 82.8919 98.8375C82.0333 96.4904 82.2795 93.6189 84.7428 92.5173Z" fill="white"/>
<path d="M54.2065 90.1778C59.3076 89.7891 59.7605 93.057 59.6165 97.1978C59.5543 98.986 59.6303 100.787 59.5009 102.609C58.816 102.656 58.0093 102.631 57.3141 102.627C57.184 102.205 57.1104 101.635 57.0384 101.187C54.9763 103.148 52.1784 103.61 49.9841 101.556C49.0523 100.23 48.8795 98.286 50.1243 97.0939C51.9189 95.375 54.4285 95.3784 56.7386 95.3825C56.7241 95.0854 56.7045 94.7884 56.6799 94.4919C56.6231 93.8365 56.402 93.098 55.8595 92.671C54.1981 91.3636 51.774 94.0366 50.3718 92.8296C50.1441 92.3941 50.1865 91.811 50.18 91.307C51.5809 90.5429 52.6453 90.3095 54.2065 90.1778Z" fill="black"/>
<path d="M55.1675 97.1761C55.5457 97.1341 56.3534 97.1377 56.7654 97.1265L56.7481 99.3337C55.7926 100.255 55.2226 100.536 53.9687 100.755C52.6505 100.507 51.3157 99.7158 52.4777 98.2176C53.1786 97.314 54.1101 97.2576 55.1675 97.1761Z" fill="white"/>
<path d="M41.6471 86.03C43.0706 85.9201 48.571 85.7687 47.6105 88.8221C47.5538 89.0026 47.2183 89.3201 47.0881 89.3059C45.0355 89.023 43.6581 88.1184 41.487 88.806C37.4174 90.0949 37.2383 98.282 41.0716 99.9511C42.9774 100.781 44.748 100.129 46.598 99.4666C46.9375 99.3439 47.0005 99.3605 47.3619 99.4071C48.0108 99.8145 48.0674 100.581 47.6956 101.204C47.1768 102.044 46.1514 102.39 45.2466 102.603C40.9365 103.667 36.2883 101.777 35.4291 97.025C34.5031 91.9014 36.1441 87.1734 41.6471 86.03Z" fill="black"/>
<path d="M72.8718 87.186C73.8317 87.1182 74.2667 87.1414 75.2159 87.2525C75.2648 88.2145 75.2228 89.4997 75.2189 90.4858C76.2745 90.4529 77.1812 90.4684 78.238 90.5034C78.2594 91.1793 78.2253 91.9405 78.2103 92.6228C77.2762 92.668 76.1815 92.6478 75.2345 92.6532C75.222 94.8369 75.1537 97.0512 75.2943 99.2267C75.4034 100.914 77.0559 100.39 78.1863 100.191C78.2504 100.885 78.2247 101.563 78.2132 102.259C77.3379 103.142 74.2048 103.055 73.357 102.009C71.7265 99.9967 72.3262 95.1877 72.3527 92.6378C71.5798 92.676 70.999 92.8563 70.4403 92.2689C70.2567 91.7623 70.3643 91.0593 70.4058 90.5042L72.358 90.4934C72.3907 89.6854 72.4278 87.8447 72.8718 87.186Z" fill="black"/>
<path d="M58.2641 60.8721C58.008 60.4755 57.4736 59.7632 57.4415 59.3346C57.5026 59.3207 57.5638 59.3068 57.625 59.293C58.0157 59.8142 58.8778 61.0516 59.3136 61.4303C60.824 62.7435 62.3458 62.8898 64.1261 63.3183C64.3223 64.1191 64.1035 65.5107 64.241 66.4437L64.2275 66.906C63.9975 67.9426 64.2325 69.3992 64.221 70.4652L65.6642 70.5113C64.7753 70.6655 63.1858 70.6368 62.257 70.5853L62.3046 70.5028L63.63 70.4785C63.7255 69.8381 63.9847 68.8828 63.5322 68.4037C61.3317 68.8217 56.5991 66.6108 55.152 64.8692C54.7367 65.2696 54.585 65.4535 54.0591 65.6717C54.1235 65.3446 57.7087 61.6443 58.2641 60.8721Z" fill="#D8E9EE"/>
<path d="M55.1874 64.7506C56.2521 63.5377 57.418 62.41 58.5194 61.1372C59.9694 62.5256 61.732 63.37 63.7476 63.4311C63.775 64.2593 63.9065 67.8191 63.5296 68.2915C58.6486 67.3988 59.0344 67.168 55.1874 64.7506Z" fill="white"/>
<path d="M64.1261 63.3184C64.3223 64.1191 64.1035 65.5107 64.241 66.4437L64.2275 66.906C63.9975 67.9426 64.2325 69.3992 64.221 70.4652L65.6642 70.5114C64.7753 70.6655 63.1858 70.6369 62.257 70.5854L62.3046 70.5029L63.63 70.4785C63.7255 69.8381 63.9847 68.8829 63.5322 68.4037L63.5296 68.2915C63.9065 67.8191 63.775 64.2594 63.7476 63.4311L64.1261 63.3184Z" fill="#D8E9EE"/>
<path d="M68.2067 90.1563C70.4043 90.1336 69.844 91.3564 69.7225 93.1355C67.5604 92.8481 66.7931 92.9323 65.5263 94.8994C65.4283 97.2074 65.5122 100.229 65.4892 102.592C64.6527 102.626 63.4491 102.671 62.6401 102.578L62.6261 90.4431C63.6166 90.3828 64.2041 90.3869 65.1961 90.4413C65.2581 91.1134 65.2372 91.8918 65.2365 92.5745C66.2227 91.235 66.5657 90.4614 68.2067 90.1563Z" fill="black"/>
<path d="M80.9889 52.423C82.0599 52.7078 83.1248 53.0155 84.1826 53.3457L84.4951 53.4426C84.9411 53.5807 85.663 53.8735 86.0738 53.7501C86.691 54.5456 89.2864 54.8476 90.2619 55.3426C90.639 55.534 91.0241 55.7387 91.4415 55.7932L91.538 55.8051C89.0691 56.0282 83.6008 55.8592 80.9446 55.8417C80.8914 54.5663 80.9211 53.6832 80.9889 52.423Z" fill="#B1B1B1"/>
<path d="M50.1173 62.1118C49.6371 62.3438 47.0384 63.5758 46.739 63.5364L46.7748 63.382C48.0189 63.0057 48.216 62.461 49.8685 62.1194L49.9763 61.8833C49.539 61.1109 48.6036 56.8833 48.6305 55.9602C48.7864 50.6115 51.3881 45.241 56.2219 42.6315C57.0764 42.1702 57.9135 41.5299 58.9044 41.4417C58.0613 41.9087 55.9406 43.0289 55.3719 43.4308C52.331 45.5588 50.2074 48.758 49.427 52.3865C49.1505 53.6774 49.1479 54.6095 48.9375 55.8328C49.9408 55.7518 53.1729 55.9188 53.7496 55.6648C54.1023 55.0028 53.9821 54.021 54.182 53.4648L54.2801 53.4283C54.4081 53.913 54.2601 55.2592 54.0928 55.7537C53.5523 56.0693 49.9265 55.942 49.0521 55.935C49.0776 56.322 49.1081 56.7085 49.1436 57.0947C49.2278 57.9905 49.6769 61.0409 50.3614 61.6083C51.0858 61.6085 53.425 60.2675 54.4114 59.9375L54.4538 60.076C54.1624 60.4145 51.3079 61.4214 50.4538 61.9885C50.558 62.6299 51.8313 64.4486 52.306 65.0243C54.7149 67.945 58.4948 70.1754 62.3046 70.5029L62.257 70.5854L61.8059 70.8847C61.3878 70.8829 59.6574 70.4703 59.2348 70.3225C54.8419 68.7858 52.1845 66.1618 50.1173 62.1118Z" fill="#ACD7DE"/>
<path d="M72.545 43.0265C74.9698 44.8021 76.5908 46.4934 77.9465 49.2394L78.0339 49.4235C79.6107 53.5219 79.9109 57.6937 78.046 61.734C74.8918 68.5674 69.0519 71.4291 61.8059 70.8846L62.257 70.5854C63.1859 70.6369 64.7754 70.6655 65.6643 70.5114C65.904 70.5132 66.0982 70.4789 66.3337 70.4431C70.2074 69.8655 73.6873 67.7577 75.9935 64.5922C78.3608 61.3331 79.3417 57.2694 78.7219 53.2892C78.06 49.0589 75.8435 45.843 72.4149 43.3384L72.545 43.0265Z" fill="#74D56D"/>
<path d="M48.6671 41.8264C48.8226 41.8448 48.8677 41.9039 48.994 42.0014C48.9073 42.4489 48.1738 43.1337 47.8162 43.584C47.1081 44.4898 46.4866 45.4599 45.9597 46.4818C44.797 48.7427 44.2682 50.9162 43.7916 53.3867L43.6905 53.3577C43.3241 52.9953 43.5318 52.4795 43.6131 52.0079C44.2836 48.1199 46.0662 44.7644 48.6671 41.8264Z" fill="#13A9F6"/>
<path d="M43.4208 58.2678L43.92 58.4288C44.07 61.1934 45.455 64.497 46.949 66.8091C47.3724 67.4643 48.8562 68.9551 48.9679 69.5674L48.8384 69.7079C48.7482 69.6691 48.6259 69.6235 48.5604 69.5456C45.9644 66.4584 43.6898 62.3428 43.4208 58.2678Z" fill="#52AFB3"/>
<path d="M84.1826 53.3457C83.6029 50.2073 82.9323 47.6582 81.1624 44.9336C80.8309 44.4233 79.0344 42.0601 78.9975 41.7993L79.1706 41.7617C81.7104 44.0045 84.5901 50.0636 84.4951 53.4426L84.1826 53.3457Z" fill="#74D56D"/>
<path d="M61.3253 35.1521L61.1659 35.666C59.1265 35.8356 55.7429 37.0545 53.936 38.1312C53.2224 38.5565 51.8806 39.6767 51.1504 39.9181L50.9993 39.8161C51.3004 39.3088 51.9359 38.9282 52.4215 38.594C55.1225 36.7349 58.1198 35.7477 61.3253 35.1521Z" fill="#13A9F6"/>
<path d="M84.1553 58.2961L84.3838 58.4331C84.646 59.099 84.2218 60.4636 84.032 61.1504C83.1175 64.4588 81.4003 67.1153 79.2322 69.7268C79.1763 69.722 79.0628 69.6581 79.0035 69.6298C79.0462 69.2416 79.794 68.4279 80.0725 68.0886C82.4512 65.1924 83.5994 61.9959 84.1553 58.2961Z" fill="#74D56D"/>
<path d="M76.7167 71.4706L76.9027 71.6413L76.8575 71.8363C73.0737 74.6513 70.5119 75.461 66.0135 76.285C65.7649 76.2293 65.8635 76.2941 65.7173 76.0718C65.767 76.018 65.8168 75.9643 65.8665 75.9105C67.6537 75.6316 69.3337 75.2791 71.0377 74.6731C73.2193 73.8971 74.8365 72.7836 76.7167 71.4706Z" fill="#74D56D"/>
<path d="M51.0977 71.5221C51.6393 71.6471 54.9564 74.0001 56.334 74.4913C58.2563 75.1767 59.6939 75.4853 61.7965 75.8221C62.1518 75.879 62.17 75.9826 62.2982 76.2202C59.1283 76.1256 54.5982 74.3812 52.0007 72.5227C51.6058 72.2401 51.165 71.9597 51.0977 71.5221Z" fill="#52AFB3"/>
<path d="M66.9441 35.2802C69.0496 35.4092 76.3623 38.09 77.047 40.03C76.6826 39.8858 75.2083 38.8593 74.8088 38.6025C73.8002 37.9517 72.741 37.3829 71.6412 36.9017C70.1247 36.2368 68.8265 36.1539 67.2696 35.6919C67.0081 35.6143 66.998 35.4753 66.9441 35.2802Z" fill="#52AFB3"/>
<path d="M63.6504 79.2645C63.6222 78.3421 63.4289 73.6448 63.8409 73.1471C63.9656 73.1865 64.064 73.1847 64.0825 73.2652C64.3544 74.4453 64.3284 78.3292 64.066 79.3728C63.8785 79.3717 63.8306 79.3317 63.6504 79.2645Z" fill="#CCE9CF"/>
<path d="M64.241 66.4437C66.3128 66.1708 68.1894 65.9661 69.9562 64.7062C70.4845 64.3295 72.4303 62.423 72.7104 62.544C72.3709 63.2486 71.0308 64.3237 70.3752 64.7946C68.5514 66.1045 66.3887 66.4955 64.2275 66.906L64.241 66.4437Z" fill="#D8E9EE"/>
<path d="M47.7735 72.1394L47.8487 72.4228L48.0444 72.486C49.3856 71.6503 50.6835 69.0279 52.0251 68.6554C51.4804 69.6366 48.1319 72.614 47.9126 73.596C47.725 73.7883 47.5745 73.8304 47.3249 73.9426L47.1617 73.8466C47.1172 73.2651 47.4956 72.6345 47.7735 72.1394Z" fill="#ACD7DE"/>
<path d="M69.9501 45.101C71.541 45.2781 74.5464 48.7081 75.1929 50.1783C74.5606 49.898 73.8754 48.6044 73.3603 48.0303C72.327 46.8788 71.0959 46.094 69.9501 45.101Z" fill="#D8E9EE"/>
<path d="M75.7795 68.4921C76.5014 68.5621 79.3924 71.8711 79.6798 72.667C79.0015 72.1842 75.9897 69.1665 75.7795 68.4921Z" fill="#74D56D"/>
<path d="M76.9926 49.6135C77.1695 49.6488 77.0844 49.6199 77.2341 49.745C77.025 50.0534 72.6374 51.8949 72.0318 52.1609C71.9708 52.1338 71.9329 52.0818 71.8799 52.0289C72.4681 51.4848 76.0568 50.099 76.9926 49.6135Z" fill="#D8E9EE"/>
<path d="M68.1366 40.9714C69.9263 41.4012 70.9861 42.0435 72.545 43.0265L72.4148 43.3384C71.5113 42.734 69.3023 41.6063 68.294 41.367L68.1366 40.9714Z" fill="#52AFB3"/>
<path d="M73.6025 58.5268C74.3532 58.4364 77.5554 59.2034 78.0669 59.8708C77.6884 59.8533 74.0222 58.7285 73.6025 58.5268Z" fill="#D8E9EE"/>
<path d="M77.9465 49.2394C78.5442 48.7003 80.1304 48.0173 80.9508 47.8843L81.063 47.9228C80.388 48.341 78.3324 49.2017 78.0339 49.4235L77.9465 49.2394Z" fill="#D8E9EE"/>
<path d="M56.8525 37.97C57.2502 38.4338 58.1174 40.6862 57.9985 41.2742C57.6256 40.9253 56.7522 38.5361 56.8525 37.97Z" fill="#D8E9EE"/>
<path d="M57.9341 70.6005C58.3584 71.0046 57.4961 72.7411 57.2796 73.2887L57.1692 73.2568C57.0725 72.873 57.751 71.0846 57.9341 70.6005Z" fill="#D8E9EE"/>
<path d="M69.7432 70.5848C70.1259 70.857 70.7328 72.8918 70.7383 73.3905C70.2729 73.0671 69.771 71.181 69.7432 70.5848Z" fill="#D8E9EE"/>
<path d="M46.6659 47.7561C47.2304 47.6961 48.8728 48.4824 49.3255 48.8636C48.631 48.9556 47.2764 48.1437 46.6659 47.7561Z" fill="#D8E9EE"/>
<path d="M78.8704 62.6398C79.4961 62.534 81.013 63.1804 81.4026 63.7194C81.0305 63.6678 79.2219 62.8463 78.8704 62.6398Z" fill="#CCE9CF"/>
</g>
<defs>
<clipPath id="clip0_2164_3">
<rect width="128" height="128" fill="white"/>
</clipPath>
</defs>
</svg>
